<?xml version="1.0" encoding="UTF-8" standalone="no"?>
<svg
   xmlns:dc="http://purl.org/dc/elements/1.1/"
   xmlns:cc="http://creativecommons.org/ns#"
   xmlns:rdf="http://www.w3.org/1999/02/22-rdf-syntax-ns#"
   xmlns:svg="http://www.w3.org/2000/svg"
   xmlns="http://www.w3.org/2000/svg"
   viewBox="0 0 306.66666 146.66667"
   height="146.66667"
   width="306.66666"
   xml:space="preserve"
   id="svg2"
   version="1.1"><metadata
     id="metadata8"><rdf:RDF><cc:Work
         rdf:about=""><dc:format>image/svg+xml</dc:format><dc:type
           rdf:resource="http://purl.org/dc/dcmitype/StillImage" /></cc:Work></rdf:RDF></metadata><defs
     id="defs6"><clipPath
       id="clipPath18"
       clipPathUnits="userSpaceOnUse"><path
         id="path16"
         d="M 0,110 H 230 V 0 H 0 Z" /></clipPath><clipPath
       id="clipPath26"
       clipPathUnits="userSpaceOnUse"><path
         id="path24"
         d="M 0,110 H 230 V 0 H 0 Z" /></clipPath><clipPath
       id="clipPath40"
       clipPathUnits="userSpaceOnUse"><path
         id="path38"
         d="M 88.6885,41.0576 H 199.362 V 31.8828 H 88.6885 Z" /></clipPath></defs><g
     transform="matrix(1.3333333,0,0,-1.3333333,0,146.66667)"
     id="g10"><g
       id="g12"><g
         clip-path="url(#clipPath18)"
         id="g14"><g
           id="g20"><g
             id="g22" /><g
             id="g32"><g
               style="opacity:0"
               id="g30"
               clip-path="url(#clipPath26)"><path
                 id="path28"
                 style="fill:#000000;fill-opacity:1;fill-rule:evenodd;stroke:none"
                 d="M 0,0 H 230 V 110 H 0 Z" /></g></g></g><g
           id="g34"><g
             id="g36" /><g
             id="g48"><g
               style="opacity:0.39999402"
               id="g46"
               clip-path="url(#clipPath40)"><g
                 id="g44"
                 transform="translate(199.3623,40.9189)"><path
                   id="path42"
                   style="fill:#000000;fill-opacity:1;fill-rule:nonzero;stroke:none"
                   d="M 0,0 -3.186,-5.072 V -8.885 H -4.48 v 3.801 L -7.602,0 h 1.51 L -3.834,-3.677 -1.512,0 Z m -8.168,-7.828 c 0,-0.377 -0.102,-0.672 -0.303,-0.881 -0.201,-0.21 -0.445,-0.314 -0.728,-0.314 -0.252,0 -0.489,0.078 -0.711,0.232 -0.223,0.156 -0.397,0.385 -0.522,0.686 l -2.644,6.392 v -7.172 h -1.272 v 7.639 c 0,0.428 0.1,0.756 0.303,0.982 0.201,0.227 0.451,0.34 0.754,0.34 0.234,0 0.463,-0.078 0.686,-0.233 0.222,-0.156 0.392,-0.376 0.509,-0.661 l 2.643,-6.519 V 0 h 1.285 z m -9.328,2.076 -1.457,4.043 -1.44,-4.043 z m 2.494,-3.133 -1.361,-0.002 -0.67,1.852 h -3.826 l -0.668,-1.848 -1.354,-0.002 2.92,8.055 c 0.227,0.603 0.57,0.906 1.031,0.906 0.463,0 0.803,-0.303 1.02,-0.906 z m -8.684,5.55 v 1.133 c 0,0.327 -0.062,0.554 -0.189,0.68 -0.15,0.159 -0.439,0.239 -0.867,0.239 h -2.682 v -3.059 h 2.656 c 0.393,0 0.672,0.082 0.836,0.246 0.164,0.163 0.246,0.416 0.246,0.761 m 1.284,-0.063 c 0,-0.697 -0.205,-1.242 -0.618,-1.635 -0.41,-0.395 -0.99,-0.592 -1.736,-0.592 h -2.668 v -3.26 h -1.271 V 0 h 3.814 c 1.652,0 2.479,-0.709 2.479,-2.127 z m -7.84,-5.487 h -1.26 v 7.602 l -1.975,-6.633 c -0.101,-0.36 -0.255,-0.637 -0.466,-0.83 -0.209,-0.193 -0.44,-0.29 -0.692,-0.29 -0.252,0 -0.482,0.095 -0.691,0.283 -0.211,0.189 -0.371,0.468 -0.479,0.837 l -1.963,6.633 v -7.602 h -1.271 v 7.602 c 0,0.457 0.115,0.809 0.346,1.054 0.23,0.246 0.513,0.368 0.849,0.368 0.293,0 0.561,-0.092 0.799,-0.278 0.238,-0.183 0.408,-0.453 0.51,-0.804 l 1.861,-6.509 1.94,6.509 c 0.099,0.36 0.267,0.63 0.504,0.81 0.234,0.182 0.494,0.272 0.779,0.272 0.328,0 0.611,-0.126 0.849,-0.38 0.239,-0.253 0.36,-0.603 0.36,-1.042 z m -11.617,2.404 v 4.052 c 0,0.437 -0.09,0.737 -0.27,0.9 -0.182,0.164 -0.484,0.246 -0.912,0.246 h -1.373 c -0.436,0 -0.746,-0.084 -0.931,-0.252 -0.184,-0.168 -0.276,-0.466 -0.276,-0.894 v -4.028 c 0,-0.436 0.09,-0.734 0.269,-0.898 0.182,-0.165 0.495,-0.247 0.938,-0.247 h 1.373 c 0.502,0 0.826,0.072 0.969,0.214 0.142,0.144 0.213,0.445 0.213,0.907 m 1.283,0.088 c 0,-0.873 -0.209,-1.505 -0.629,-1.9 -0.42,-0.395 -1.104,-0.592 -2.051,-0.592 h -0.957 c -0.93,0 -1.609,0.197 -2.037,0.592 -0.429,0.395 -0.643,1.027 -0.643,1.9 v 3.901 c 0,0.873 0.209,1.506 0.629,1.9 0.42,0.395 1.104,0.592 2.051,0.592 h 0.957 c 0.932,0 1.611,-0.197 2.039,-0.592 0.428,-0.394 0.641,-1.027 0.641,-1.9 z m -7.6,5.11 H -51.7 c -0.621,0 -0.931,-0.315 -0.931,-0.945 v -4.43 c 0,-0.277 0.088,-0.502 0.264,-0.679 0.176,-0.177 0.398,-0.265 0.667,-0.265 h 3.499 v -1.283 h -3.776 c -0.511,0 -0.953,0.194 -1.322,0.578 -0.402,0.42 -0.603,0.941 -0.603,1.561 v 4.557 c 0,0.662 0.191,1.193 0.572,1.591 0.382,0.399 0.866,0.598 1.454,0.598 h 3.7 z m -42.89,0 h -3.713 c -0.201,0 -0.377,-0.076 -0.529,-0.227 -0.175,-0.185 -0.264,-0.436 -0.264,-0.756 v -1.497 h 4.493 v -1.296 h -4.493 v -1.737 c 0,-0.294 0.13,-0.507 0.39,-0.642 0.218,-0.109 0.558,-0.164 1.02,-0.164 h 3.058 v -1.283 h -3.411 c -0.755,0 -1.332,0.203 -1.73,0.61 -0.4,0.408 -0.598,0.997 -0.598,1.769 v 4.278 c 0,0.764 0.205,1.326 0.616,1.687 0.412,0.361 1.062,0.541 1.952,0.541 h 3.209 z m -7.326,-7.602 h -1.27 v 3.776 h -3.826 v -3.776 h -1.271 V 0 h 1.271 v -3.826 h 3.826 V 0 h 1.27 z m -7.211,7.602 h -1.9 v -7.602 h -1.283 v 7.602 h -1.888 V 0 h 5.071 z" /></g></g></g></g><g
           transform="translate(143.9111,32.0342)"
           id="g50"><path
             id="path52"
             style="fill:#000000;fill-opacity:1;fill-rule:nonzero;stroke:none"
             d="M 0,0 H -1.271 V 3.775 H -5.096 V 0 h -1.271 v 8.885 h 1.271 V 5.059 h 3.825 V 8.885 H 0 Z m -7.651,7.602 h -3.524 c -0.621,0 -0.93,-0.315 -0.93,-0.945 v -4.43 c 0,-0.277 0.087,-0.502 0.263,-0.679 0.176,-0.177 0.399,-0.265 0.667,-0.265 h 3.499 V 0 h -3.775 c -0.512,0 -0.953,0.193 -1.322,0.578 -0.403,0.42 -0.604,0.941 -0.604,1.561 v 4.556 c 0,0.662 0.19,1.194 0.572,1.592 0.382,0.399 0.867,0.598 1.453,0.598 h 3.701 z m -7.262,-5.424 c 0,-0.614 -0.21,-1.129 -0.628,-1.549 C -15.961,0.21 -16.432,0 -16.951,0 h -2.191 c -0.57,0 -1.052,0.205 -1.447,0.617 -0.393,0.41 -0.591,0.931 -0.591,1.561 v 6.707 h 1.272 V 2.34 c 0,-0.394 0.072,-0.668 0.219,-0.824 0.148,-0.155 0.397,-0.233 0.75,-0.233 h 1.787 c 0.335,0 0.578,0.078 0.729,0.233 0.152,0.156 0.227,0.406 0.227,0.75 v 6.619 h 1.283 z M -24,2.403 v 4.053 c 0,0.437 -0.09,0.736 -0.27,0.899 -0.18,0.165 -0.484,0.247 -0.912,0.247 h -1.373 c -0.435,0 -0.746,-0.084 -0.93,-0.252 -0.185,-0.168 -0.277,-0.466 -0.277,-0.894 V 2.428 c 0,-0.436 0.09,-0.735 0.27,-0.899 0.181,-0.164 0.493,-0.246 0.937,-0.246 h 1.373 c 0.503,0 0.827,0.071 0.969,0.214 C -24.07,1.641 -24,1.941 -24,2.403 m 1.284,0.089 c 0,-0.873 -0.21,-1.506 -0.629,-1.9 C -23.765,0.197 -24.448,0 -25.396,0 h -0.957 c -0.931,0 -1.61,0.197 -2.039,0.592 -0.428,0.394 -0.641,1.027 -0.641,1.9 v 3.901 c 0,0.873 0.209,1.505 0.629,1.9 0.42,0.395 1.103,0.592 2.051,0.592 h 0.957 c 0.931,0 1.611,-0.197 2.039,-0.592 0.427,-0.395 0.641,-1.027 0.641,-1.9 z m -7.161,5.11 h -1.899 V 0 h -1.285 v 7.602 h -1.887 v 1.283 h 5.071 z" /></g><g
           transform="translate(123.4404,49.8877)"
           id="g54"><path
             id="path56"
             style="fill:#000000;fill-opacity:1;fill-rule:evenodd;stroke:none"
             d="m 0,0 c -1.083,-0.973 -2.885,-1.559 -5.608,-1.559 h -9.322 c -3.361,0 -5.405,0.604 -6.444,1.537 -1.105,0.987 -1.822,3.001 -1.822,6.426 v 14.832 c 0,2.822 0.656,4.492 1.67,5.356 1.057,0.904 3.139,1.487 6.542,1.487 h 10.918 v -4.81 h -10.595 c -0.648,0 -1.235,-0.231 -1.708,-0.674 -0.466,-0.438 -0.746,-1.008 -0.746,-1.671 V 5.553 c 0,-0.72 0.321,-1.326 0.89,-1.746 0.535,-0.396 1.17,-0.557 1.833,-0.557 h 6.413 c 1.653,0 3.587,0.447 3.587,2.392 V 15.709 H 1.689 V 5.462 C 1.689,2.646 1.035,0.93 0,0 m -41.971,0.156 c -1.148,-1.105 -2.785,-1.716 -5.043,-1.716 h -18.503 v 29.638 h 18.234 c 4.975,0 7.082,-2.013 7.082,-5.99 V 4.387 c 0,-1.708 -0.588,-3.096 -1.77,-4.231 m -4.311,19.736 c 0,1.048 -0.285,2.065 -1.151,2.676 -0.731,0.519 -1.702,0.702 -2.759,0.702 h -8.245 c -0.533,0 -1.001,-0.471 -1.001,-1.001 V 4.253 c 0,-0.533 0.468,-1.001 1.001,-1.001 h 8.297 c 1.161,0 2.292,0.201 2.992,0.939 0.659,0.7 0.866,1.722 0.866,2.794 z m 11.53,8.186 h 6.08 V -1.561 h -6.08 z" /></g><g
           transform="translate(147.3604,48.0752)"
           id="g58"><path
             id="path60"
             style="fill:#000000;fill-opacity:1;fill-rule:evenodd;stroke:none"
             d="m 0,0 c -0.502,0.135 -0.984,0.396 -1.458,0.755 -0.794,0.6 -1.396,1.472 -1.775,2.679 l -5.818,18.741 c -0.066,0.246 -0.134,0.466 -0.201,0.66 l -0.106,0.348 -0.004,0.016 h -0.002 c -0.072,0.279 -0.324,0.485 -0.624,0.485 -0.353,0 -0.639,-0.285 -0.644,-0.636 V 23.044 23.04 23.036 21.934 21.918 21.901 21.885 21.277 0.254 h -6.081 v 25.035 c 0,1.576 0.59,2.746 1.795,3.627 1.126,0.81 2.56,1.244 4.369,1.244 1.424,0 2.702,-0.321 3.858,-0.954 0.91,-0.524 1.519,-1.463 1.796,-2.372 L -0.23,11.807 H -0.234 L 0.508,9.414 0.509,9.411 c 0.06,-0.191 0.239,-0.33 0.451,-0.33 0.212,0 0.392,0.139 0.452,0.33 l 0.461,1.484 c 0.02,0.054 0.038,0.111 0.053,0.17 l 0.279,0.9 0.025,0.078 4.592,14.791 c 0.276,0.909 0.885,1.848 1.795,2.372 1.156,0.633 2.434,0.954 3.858,0.954 1.81,0 3.244,-0.434 4.369,-1.244 1.205,-0.881 1.795,-2.051 1.795,-3.627 V 0.254 h -6.08 v 21.023 0.608 0.016 0.017 0.016 1.102 0.004 0.004 0.004 c -0.006,0.351 -0.291,0.636 -0.645,0.636 -0.301,0 -0.553,-0.206 -0.623,-0.485 h -0.002 l -0.004,-0.016 -0.107,-0.348 c -0.067,-0.194 -0.135,-0.414 -0.201,-0.66 L 5.16,3.434 C 4.781,2.227 4.18,1.355 3.385,0.755 2.91,0.396 2.43,0.135 1.926,0 1.215,-0.19 0.711,-0.19 0,0" /></g><g
           transform="translate(184.0498,78.1895)"
           id="g62"><path
             id="path64"
             style="fill:#000000;fill-opacity:1;fill-rule:evenodd;stroke:none"
             d="M 0,0 H 0.055 C 1.273,0 2.363,-0.31 3.348,-0.923 4.299,-1.516 4.988,-2.365 5.42,-3.517 L 15.313,-29.86 H 8.988 l -2.342,6.167 c -0.103,0.272 -0.642,0.643 -0.935,0.643 H 0 -5.711 c -0.293,0 -0.832,-0.371 -0.937,-0.643 l -2.34,-6.167 h -6.325 l 9.893,26.343 c 0.43,1.152 1.121,2.001 2.07,2.594 C -2.365,-0.31 -1.275,0 -0.055,0 Z m 0.451,-7.027 -0.002,0.005 -0.002,0.005 v 0.005 L 0.443,-7.007 0.301,-6.624 C 0.266,-6.497 0.152,-6.402 0.016,-6.396 L 0,-6.395 -0.018,-6.396 c -0.136,-0.006 -0.25,-0.101 -0.283,-0.228 l -0.146,-0.388 -0.002,-0.005 -0.002,-0.005 -0.002,-0.005 -0.045,-0.119 -3.781,-10.1 c -0.282,-0.754 0.131,-1.352 0.937,-1.352 H 0 3.34 c 0.806,0 1.221,0.598 0.937,1.352 L 0.529,-7.233 Z" /></g><g
           transform="translate(37.9033,48.3291)"
           id="g66"><path
             id="path68"
             style="fill:#000000;fill-opacity:1;fill-rule:evenodd;stroke:none"
             d="m 0,0 c -2.885,0 -4.866,0.547 -6.106,1.48 -1.199,0.901 -1.837,2.216 -1.837,4.106 v 18.195 c 0,1.777 0.592,3.152 1.75,4.214 1.148,1.055 2.793,1.643 5.062,1.643 H 14.571 V 24.827 H 1.023 c -0.812,0 -1.583,-0.246 -2.144,-0.869 -0.533,-0.593 -0.741,-1.35 -0.741,-2.147 V 18.27 c 0,-0.534 0.467,-1.002 1.001,-1.002 H 14.571 V 12.459 H -0.861 c -0.534,0 -1.001,-0.469 -1.001,-1.002 V 7.962 c 0,-1.966 1.126,-3.153 3.103,-3.153 h 13.33 l 0,-4.809 z" /></g><g
           transform="translate(200.0381,73.9746)"
           id="g70"><path
             id="path72"
             style="fill:#000000;fill-opacity:1;fill-rule:evenodd;stroke:none"
             d="M 0,0 H -0.572 V 3.426 L -1.457,0.438 C -1.502,0.276 -1.572,0.152 -1.668,0.067 c -0.094,-0.087 -0.195,-0.13 -0.311,-0.13 -0.113,0 -0.216,0.043 -0.31,0.126 -0.096,0.085 -0.168,0.209 -0.215,0.375 L -3.391,3.426 V 0 h -0.572 v 3.426 c 0,0.204 0.051,0.362 0.156,0.473 0.102,0.112 0.231,0.165 0.379,0.165 0.133,0 0.254,-0.041 0.36,-0.124 0.109,-0.084 0.185,-0.204 0.23,-0.363 l 0.842,-2.943 0.873,2.946 c 0.045,0.161 0.121,0.282 0.225,0.363 0.107,0.082 0.224,0.121 0.355,0.121 0.145,0 0.273,-0.055 0.383,-0.168 C -0.053,3.78 0,3.623 0,3.426 Z M -4.346,3.425 H -5.203 V 0 h -0.572 v 3.425 h -0.852 v 0.579 h 2.281 z" /></g></g></g></g></svg>